# xmcd
# 
# Track frame offsets:
#     150
#     18040
#     36705
#     56180
#     75770
#     96187
#     117850
#     138752
#     166282
#     185265
#     210187
#     232487
#     255592
#     300727
# 
# Disc length: 4415
# 
# Revision: 1
# Processed by: cddbd v1.5.2PL0 Copyright (c) Steve Scherf et al.
# Submitted via: BonkEnc v1.0.5
# 
DISCID=b1113d0e
DTITLE=田村直美 - ツキノカガヤキ ホシノマタタキ
DYEAR=1999
DGENRE=Pop
TTITLE0=extra flesh(album version)
TTITLE1=春夏秋冬
TTITLE2=一秒先の現実 一秒先の憂鬱
TTITLE3=さよならが残した傷痕
TTITLE4=Radical love
TTITLE5=SWEET 7DAYS
TTITLE6=カサブランカ・ダンディ
TTITLE7=鋼
TTITLE8=雨の音をtululi-lala
TTITLE9=呼吸してる
TTITLE10=月のように
TTITLE11=Feel my way どんな時がきても
TTITLE12=魔女のガーナ
TTITLE13=魔女のガーナ
EXTD=YEAR: 1999
EXTT0=
EXTT1=
EXTT2=
EXTT3=
EXTT4=
EXTT5=
EXTT6=
EXTT7=
EXTT8=
EXTT9=
EXTT10=
EXTT11=
EXTT12=
EXTT13=
PLAYORDER=
